<svg width="345" height="242" viewBox="0 0 345 242" fill="none" xmlns="http://www.w3.org/2000/svg">
<mask id="mask0_39_994" style="mask-type:luminance" maskUnits="userSpaceOnUse" x="0" y="23" width="334" height="169">
<path d="M333.461 23.616L320.928 163.29L7.77566e-05 191.287L12.5327 51.6124L333.461 23.616Z" fill="white"/>
</mask>
<g mask="url(#mask0_39_994)">
<path fill-rule="evenodd" clip-rule="evenodd" d="M9.35941 86.5016C57.6841 62.1318 102.705 63.2008 139.304 92.7604C148.526 101.565 157.928 112.576 168.009 123.432C185.587 142.38 207.366 164.175 236.572 164.989C274.595 166.048 312.514 136.704 321.139 97.6505C326.963 71.2756 311.255 43.9257 286.079 42.8286C264.027 41.865 246.738 58.2324 242.562 74.3411C238.76 88.9963 245.8 103.444 261.521 105.191C250.769 110.24 230.398 111.092 221.621 95.7019C217.55 88.5795 216.769 79.4953 219.105 70.6242C221.851 60.2003 228.48 50.9377 237.081 43.7137C250.844 32.1427 268.536 27.9547 283.891 31.0138C314.639 37.1455 332.935 64.6926 326.068 97.8465C317.446 139.499 276.431 170.856 236.125 170.035C203.037 169.363 183.686 148.168 164.169 127.06C154.143 116.216 144.586 105.123 134.709 95.8229C98.2869 65.4866 59.0094 68.6084 9.35941 86.5016Z" fill="#9E0505"/>
</g>
<path fill-rule="evenodd" clip-rule="evenodd" d="M134.103 84.113C148.872 90.1788 154.416 80.34 166.904 76.4737C178.573 72.8606 184.469 82.0547 193.757 69.3755C188.535 84.2428 177.606 91.8857 168.623 93.5686C158.436 95.4714 145.969 93.4721 134.103 84.113Z" fill="#9E0505"/>
<path fill-rule="evenodd" clip-rule="evenodd" d="M39.1266 80.0543C64.9134 75.3606 89.7225 81.8706 105.408 99.2699C125.542 121.596 127.02 162.549 95.2747 185.985C81.8395 195.908 63.6851 201.386 50.2541 194.668C47.498 193.291 43.6704 190.208 42.3442 187.463C41.3481 185.419 41.0611 182.373 43.2556 180.336C44.6752 179.019 46.4746 178.742 48.0635 179.169C52.4253 180.336 57.0508 180.069 61.6684 177.906C71.2365 173.417 76.7067 162.484 73.7035 153.831C71.1041 146.333 62.1829 142.124 53.8725 142.25C48.4442 142.331 43.1543 144.315 38.4129 147.745C33.9151 150.993 30.1531 155.373 27.4441 160.066C16.7429 178.598 25.42 200.292 42.8219 206.429C60.5758 212.702 82.9376 207.054 99.5625 193.559C104.663 189.417 109.141 184.594 112.898 179.308C132.901 151.149 131.053 113.082 109.574 93.2841C93.6483 78.5942 72.0777 72.6399 47.7938 77.7681C44.8898 78.3784 42.0006 79.1423 39.1266 80.0543Z" fill="#9E0505"/>
<path fill-rule="evenodd" clip-rule="evenodd" d="M132.587 113.491C142.483 135.811 146.138 159.227 137.425 185.416C128.434 209.991 106.205 231.77 80.1276 234.929C60.962 237.253 41.9677 223.807 46.2957 203.762C47.0371 200.345 48.5759 196.788 50.9346 193.863C53.9904 190.069 58.3001 187.849 62.8193 188.013C65.3768 188.101 67.7067 189.217 69.1652 191.049C68.7636 188.141 66.4552 185.95 63.2802 185.832C57.5235 185.576 52.3634 188.213 48.7208 192.72C46.0812 195.991 44.339 199.981 43.5162 203.802C38.8569 225.337 59.0858 240.126 79.9208 237.707C106.998 234.556 131.59 212.125 140.111 185.981C148.888 159.006 144.886 135.138 132.587 113.491Z" fill="#9E0505"/>
<path fill-rule="evenodd" clip-rule="evenodd" d="M53.4975 98.806C56.1598 104.506 53.9935 109.75 53.1252 111.457C58.0057 112.739 61.5866 101.814 62.7523 99.3844C61.5216 112.413 70.1021 111.296 68.8122 120.508C71.051 118.804 72.9403 116.489 74.3685 113.794C75.7145 111.254 76.6571 108.39 77.1086 105.42C78.1163 98.8103 74.5587 89.6743 63.1369 85.5046C62.6633 85.3297 62.1714 85.1675 61.6733 85.0114C52.3503 82.1265 42.4163 81.2526 24.2614 84.43C41.1825 85.0269 49.8954 91.0679 53.4975 98.806Z" fill="#9E0505"/>
<path fill-rule="evenodd" clip-rule="evenodd" d="M137.219 28.3853C134.675 28.2731 132.468 26.7985 131.479 24.6102C130.067 21.4904 130.737 17.8478 133.076 14.6365C134.896 12.1337 137.507 10.0219 140.217 8.52663C145.368 5.67549 151.42 4.97036 156.686 5.49483C167.286 6.55455 174.956 13.8363 177.547 23.4873C181.617 38.6366 173.598 55.6594 159.102 66.1881C145.044 76.4025 127.271 78.7392 111.765 76.7533C126.996 80.7433 145.798 78.1022 160.469 68.1557C176.448 57.3218 184.445 38.4975 180.131 22.4399C177.315 11.9399 168.929 4.06713 157.399 2.91625C151.563 2.33585 144.937 3.16245 139.235 6.32114C136.094 8.05828 133.095 10.5135 130.984 13.4064C128.044 17.4331 127.229 22.0563 129.004 25.9691C130.344 28.9458 133.992 29.8202 137.219 28.3853Z" fill="#9E0505"/>
<path d="M103.338 72.8621C121.542 74.4547 139.196 68.7758 146.218 56.2536C151.092 47.557 150.164 42.0553 147.98 39.8098C146.712 38.514 145.368 37.7063 144.028 37.2909C144.402 38.3982 144.446 39.7 144.104 41.0461C143.882 41.9448 143.376 43.0949 142.764 43.9721C140.749 46.8622 137.303 48.4543 134.503 47.573C131.404 46.5959 130.242 42.9677 131.834 39.3837C132.559 37.1803 134.567 34.9379 138.822 33.525C150.433 29.6624 163.083 43.2633 149.573 60.2458C137.945 74.8584 119.761 76.6995 103.338 72.8621Z" fill="#9E0505"/>
<path fill-rule="evenodd" clip-rule="evenodd" d="M258.863 166.163C276.01 161.33 277.201 171.428 287.808 176.188C297.72 180.638 307.493 172.049 311.136 185.227C312.441 170.206 305.002 161.858 296.899 159.515C287.703 156.863 274.576 157.875 258.863 166.163Z" fill="#9E0505"/>
<path fill-rule="evenodd" clip-rule="evenodd" d="M289.065 154.793C301.022 150.048 302.754 156.941 310.82 159.376C318.354 161.646 324.67 154.905 328.436 163.735C328.084 153.227 321.991 148.044 315.938 147.084C309.078 146 299.688 147.768 289.065 154.793Z" fill="#9E0505"/>
<path fill-rule="evenodd" clip-rule="evenodd" d="M78.1236 67.3989C94.9146 60.6827 92.2864 51.0737 99.8569 40.125C106.931 29.894 118.621 31.175 117.025 17.3057C123.622 29.6313 120.132 41.7047 113.876 48.933C106.783 57.1298 94.9114 64.6273 78.1236 67.3989Z" fill="#9E0505"/>
<path fill-rule="evenodd" clip-rule="evenodd" d="M252.904 203.106C251.284 201.746 248.514 201.93 246.569 203.791C244.07 206.181 243.026 209.291 243.572 212.237C243.97 214.349 245.103 216.265 246.561 217.716C249.222 220.357 253.278 221.572 257.304 221.778C265.22 222.19 273.443 217.856 278.856 211.287C287.176 201.181 288.355 188.09 281.57 179.366C275.26 171.253 263.584 167.636 252.08 168.878C263.061 169.048 274.145 172.339 279.951 180.562C285.863 188.93 285.318 200.777 277.469 210.306C272.515 216.327 264.993 220.329 257.727 219.96C254.115 219.769 250.404 218.7 248.004 216.324C246.75 215.072 245.769 213.436 245.424 211.618C244.993 209.299 245.79 206.862 247.767 204.965C249.184 203.615 251.184 202.872 252.904 203.106Z" fill="#9E0505"/>
<path fill-rule="evenodd" clip-rule="evenodd" d="M104.488 166.663C106.876 156.361 104.218 146.444 97.4346 139.811C104.771 132.334 104.482 115.791 96.4566 101.619C97.4637 102.578 98.4391 103.572 99.3767 104.609C113.322 120.078 117.632 146.31 104.488 166.663Z" fill="#9E0505"/>
<path fill-rule="evenodd" clip-rule="evenodd" d="M288.948 139.197C267.166 144.076 249.907 141.583 238.433 130.951C228.11 140.804 204.75 141.427 182.162 128.607C198.687 154.359 234.332 163.053 268.887 149.554C275.882 146.82 282.608 143.329 288.948 139.197Z" fill="#9E0505"/>
<path fill-rule="evenodd" clip-rule="evenodd" d="M201.682 94.1661C201.619 88.5896 197.186 86.2396 193.996 90.3321C190.238 79.4211 209.074 73.1755 213.758 88.0838C220.348 109.062 185.942 130.626 163.538 110.034C176.46 117.293 201.927 115.045 201.682 94.1661Z" fill="#9E0505"/>
<path fill-rule="evenodd" clip-rule="evenodd" d="M226.874 200.928C222.425 203.237 218.697 201.534 220.598 197.874C210.364 200.185 213.337 214.245 227.129 210.808C246.546 205.973 249.164 176.029 223.401 171.1C234.598 175.887 243.534 192.286 226.874 200.928Z" fill="#9E0505"/>
<path fill-rule="evenodd" clip-rule="evenodd" d="M143.758 185.716C153.723 189.635 160.449 183.196 163.901 181.603C149.271 195.12 157.104 202.36 146.44 211.501C149.969 211.794 153.87 211.048 157.803 209.419C161.511 207.882 165.255 205.573 168.722 202.657C197.118 178.818 173.807 135.192 150.043 124.398C170.602 136.885 169.766 168.855 143.758 185.716Z" fill="#9E0505"/>
<path d="M36.4968 73.0285C48.7563 67.9538 58.1615 59.2144 58.3644 50.3291C58.5025 44.16 56.0144 41.559 53.8263 41.0896C52.5706 40.8164 51.4264 40.8266 50.4228 41.0461C51.0474 41.5066 51.5224 42.1792 51.7682 42.9989C51.9298 43.5492 51.9981 44.3178 51.9111 44.9781C51.6096 47.156 49.9454 49.1142 47.8351 49.562C45.5045 50.0564 43.5078 48.5194 43.2947 46.1148C42.9977 44.7187 43.5249 42.8808 45.7732 40.7505C51.9151 34.9371 64.7382 37.9956 61.8976 51.3462C59.4506 62.8261 48.3784 69.7124 36.4968 73.0285Z" fill="#9E0505"/>
<path d="M85.8968 49.0419C90.4687 41.6271 92.238 29.835 83.8275 26.3457C78.6651 24.2025 72.0052 26.7524 68.9114 32.3192C67.6511 34.5966 67.1334 37.2247 67.8875 39.815C68.7915 42.8957 71.768 44.0328 74.9646 44.227C71.0377 45.595 66.8457 43.285 66.067 40.5862C65.1626 37.511 65.776 34.3823 67.2787 31.6801C70.9012 25.1549 78.7537 22.1148 84.8157 24.634C94.1534 28.5079 92.7109 41.2952 87.4815 49.7736C81.5008 59.4731 70.4531 66.1471 59.703 67.4182C69.7695 64.6848 79.9234 58.7242 85.8968 49.0419Z" fill="#9E0505"/>
<path fill-rule="evenodd" clip-rule="evenodd" d="M184.411 203.609C180.447 202.828 175.158 203.91 172.015 207.086C168.216 210.921 165.963 215.602 165.659 220.496C164.995 231.302 173.704 238.672 184.803 237.249C202.019 235.037 211.733 215.578 211.855 201.134C211.959 187.661 205.23 175.811 194.829 168.66C203.982 176.799 210.168 188.164 210.061 201.422C209.954 214.863 201.039 233.457 184.888 235.532C174.755 236.833 166.837 230.164 167.44 220.293C167.714 215.871 169.751 211.629 173.194 208.157C176.405 204.914 180.403 203.651 184.411 203.609Z" fill="#9E0505"/>
<path d="M305.806 143.257C315 133.374 326.332 127.66 334.267 130.869C339.78 133.099 341.122 136.501 340.697 138.784C340.46 140.11 340.01 141.205 339.431 142.091C339.261 141.314 338.853 140.592 338.219 140.049C337.797 139.676 337.146 139.312 336.524 139.144C334.485 138.601 332.111 139.459 330.91 141.316C329.573 143.379 330.169 145.889 332.213 147.018C333.341 147.833 335.16 148.036 337.902 146.687C345.403 142.991 347.619 129.446 334.723 127.074C323.636 125.027 313.298 133.062 305.806 143.257Z" fill="#9E0505"/>
<path d="M295.548 48.7042C283.237 47.9527 271.434 52.0531 266.926 60.5412C263.791 66.4378 264.518 70.1037 266.032 71.5662C266.913 72.4084 267.834 72.9264 268.745 73.1797C268.468 72.4456 268.42 71.5757 268.62 70.6733C268.759 70.0694 269.079 69.2895 269.479 68.6907C270.779 66.7251 273.074 65.6087 274.983 66.1464C277.092 66.7444 277.942 69.1493 276.93 71.5767C276.486 73.059 275.172 74.5885 272.329 75.6086C264.562 78.3924 255.781 69.5192 264.592 57.9268C272.16 47.9686 284.397 46.4197 295.548 48.7042Z" fill="#9E0505"/>
<path fill-rule="evenodd" clip-rule="evenodd" d="M289.91 102.342C285.745 103.831 280.567 103.653 277.944 100.975C274.772 97.7413 273.322 93.38 273.89 88.4628C275.149 77.6054 285.311 68.607 296.327 68.1206C313.413 67.37 319.796 85.4398 317.335 100.08C315.03 113.749 306.076 126.953 294.236 136.019C304.986 126.162 313.301 113.55 315.565 100.1C317.861 86.4754 312.135 69.1455 296.105 69.8491C286.055 70.2909 276.816 78.4407 275.668 88.3535C275.154 92.8014 276.459 96.7492 279.333 99.6764C282.014 102.416 285.847 103.003 289.91 102.342Z" fill="#9E0505"/>
</svg>
