<svg width="345" height="242" viewBox="0 0 345 242" fill="none" xmlns="http://www.w3.org/2000/svg">
<mask id="mask0_39_1048" style="mask-type:luminance" maskUnits="userSpaceOnUse" x="11" y="23" width="334" height="169">
<path d="M11.5391 23.616L24.0717 163.29L345 191.287L332.467 51.6124L11.5391 23.616Z" fill="white"/>
</mask>
<g mask="url(#mask0_39_1048)">
<path fill-rule="evenodd" clip-rule="evenodd" d="M335.641 86.5016C287.316 62.1318 242.295 63.2008 205.696 92.7604C196.474 101.565 187.073 112.576 176.992 123.432C159.413 142.38 137.634 164.175 108.428 164.989C70.4054 166.048 32.4865 136.704 23.861 97.6505C18.037 71.2756 33.745 43.9257 58.9209 42.8286C80.9729 41.865 98.2626 58.2324 102.438 74.3411C106.24 88.9963 99.2001 103.444 83.4793 105.191C94.2316 110.24 114.602 111.092 123.379 95.7019C127.45 88.5795 128.231 79.4953 125.895 70.6242C123.15 60.2003 116.52 50.9377 107.919 43.7137C94.1563 32.1427 76.4647 27.9547 61.1097 31.0138C30.3616 37.1455 12.0654 64.6926 18.932 97.8465C27.5538 139.499 68.5694 170.856 108.875 170.035C141.963 169.363 161.314 148.168 180.831 127.06C190.857 116.216 200.415 105.123 210.291 95.8229C246.713 65.4866 285.991 68.6084 335.641 86.5016Z" fill="#9E0505"/>
</g>
<path fill-rule="evenodd" clip-rule="evenodd" d="M210.897 84.113C196.128 90.1788 190.585 80.34 178.097 76.4737C166.428 72.8606 160.532 82.0547 151.243 69.3755C156.465 84.2428 167.394 91.8857 176.378 93.5686C186.564 95.4714 199.032 93.4721 210.897 84.113Z" fill="#9E0505"/>
<path fill-rule="evenodd" clip-rule="evenodd" d="M305.873 80.0543C280.086 75.3606 255.277 81.8706 239.592 99.2699C219.458 121.596 217.98 162.549 249.725 185.985C263.16 195.908 281.315 201.386 294.746 194.668C297.502 193.291 301.329 190.208 302.656 187.463C303.652 185.419 303.939 182.373 301.744 180.336C300.325 179.019 298.525 178.742 296.936 179.169C292.574 180.336 287.949 180.069 283.331 177.906C273.763 173.417 268.293 162.484 271.296 153.831C273.896 146.333 282.817 142.124 291.127 142.25C296.555 142.331 301.845 144.315 306.587 147.745C311.085 150.993 314.847 155.373 317.556 160.066C328.257 178.598 319.58 200.292 302.178 206.429C284.424 212.702 262.062 207.054 245.437 193.559C240.337 189.417 235.859 184.594 232.101 179.308C212.098 151.149 213.946 113.082 235.426 93.2841C251.351 78.5942 272.922 72.6399 297.206 77.7681C300.11 78.3784 302.999 79.1423 305.873 80.0543Z" fill="#9E0505"/>
<path fill-rule="evenodd" clip-rule="evenodd" d="M212.412 113.491C202.517 135.811 198.862 159.227 207.575 185.416C216.565 209.991 238.795 231.77 264.872 234.929C284.038 237.253 303.032 223.807 298.704 203.762C297.963 200.345 296.424 196.788 294.065 193.863C291.009 190.069 286.7 187.849 282.18 188.013C279.623 188.101 277.293 189.217 275.835 191.049C276.236 188.141 278.545 185.95 281.72 185.832C287.476 185.576 292.636 188.213 296.279 192.72C298.919 195.991 300.661 199.981 301.484 203.802C306.143 225.337 285.914 240.126 265.079 237.707C238.001 234.556 213.41 212.125 204.889 185.981C196.112 159.006 200.113 135.138 212.412 113.491Z" fill="#9E0505"/>
<path fill-rule="evenodd" clip-rule="evenodd" d="M291.502 98.806C288.84 104.506 291.006 109.75 291.875 111.457C286.994 112.739 283.413 101.814 282.247 99.3844C283.478 112.413 274.898 111.296 276.188 120.508C273.949 118.804 272.059 116.489 270.631 113.794C269.285 111.254 268.343 108.39 267.891 105.42C266.883 98.8103 270.441 89.6743 281.863 85.5046C282.336 85.3297 282.828 85.1675 283.326 85.0114C292.649 82.1265 302.583 81.2526 320.738 84.43C303.817 85.0269 295.104 91.0679 291.502 98.806Z" fill="#9E0505"/>
<path fill-rule="evenodd" clip-rule="evenodd" d="M207.781 28.3853C210.325 28.2731 212.532 26.7985 213.521 24.6102C214.933 21.4904 214.263 17.8478 211.924 14.6365C210.104 12.1337 207.493 10.0219 204.783 8.52663C199.633 5.67549 193.58 4.97036 188.314 5.49483C177.714 6.55455 170.044 13.8363 167.454 23.4873C163.383 38.6366 171.402 55.6594 185.898 66.1881C199.956 76.4025 217.729 78.7392 233.236 76.7533C218.004 80.7433 199.203 78.1022 184.531 68.1557C168.552 57.3218 160.555 38.4975 164.869 22.4399C167.686 11.9399 176.071 4.06713 187.601 2.91625C193.437 2.33585 200.064 3.16245 205.765 6.32114C208.906 8.05828 211.905 10.5135 214.017 13.4064C216.957 17.4331 217.771 22.0563 215.997 25.9691C214.657 28.9458 211.008 29.8202 207.781 28.3853Z" fill="#9E0505"/>
<path d="M241.662 72.8621C223.458 74.4547 205.804 68.7758 198.782 56.2536C193.908 47.557 194.836 42.0553 197.02 39.8098C198.288 38.514 199.632 37.7063 200.972 37.2909C200.598 38.3982 200.554 39.7 200.896 41.0461C201.118 41.9448 201.624 43.0949 202.236 43.9721C204.251 46.8622 207.697 48.4543 210.497 47.573C213.596 46.5959 214.758 42.9677 213.166 39.3837C212.441 37.1803 210.433 34.9379 206.178 33.525C194.566 29.6624 181.917 43.2633 195.427 60.2458C207.055 74.8584 225.239 76.6995 241.662 72.8621Z" fill="#9E0505"/>
<path fill-rule="evenodd" clip-rule="evenodd" d="M86.1371 166.163C68.99 161.33 67.7989 171.428 57.1918 176.188C47.2795 180.638 37.5066 172.049 33.8642 185.227C32.5591 170.206 39.9979 161.858 48.1005 159.515C57.2963 156.863 70.4239 157.875 86.1371 166.163Z" fill="#9E0505"/>
<path fill-rule="evenodd" clip-rule="evenodd" d="M55.935 154.793C43.9778 150.048 42.2462 156.941 34.1801 159.376C26.6455 161.646 20.3302 154.905 16.5635 163.735C16.9161 153.227 23.009 148.044 29.0615 147.084C35.9221 146 45.3113 147.768 55.935 154.793Z" fill="#9E0505"/>
<path fill-rule="evenodd" clip-rule="evenodd" d="M266.876 67.3989C250.085 60.6827 252.713 51.0737 245.143 40.125C238.068 29.894 226.379 31.175 227.975 17.3057C221.378 29.6313 224.868 41.7047 231.124 48.933C238.217 57.1298 250.088 64.6273 266.876 67.3989Z" fill="#9E0505"/>
<path fill-rule="evenodd" clip-rule="evenodd" d="M92.0963 203.106C93.7163 201.746 96.4858 201.93 98.4314 203.791C100.93 206.181 101.974 209.291 101.428 212.237C101.03 214.349 99.8972 216.265 98.439 217.716C95.7781 220.357 91.7221 221.572 87.696 221.778C79.7802 222.19 71.5569 217.856 66.1443 211.287C57.8238 201.181 56.6445 188.09 63.4298 179.366C69.7403 171.253 81.416 167.636 92.92 168.878C81.9395 169.048 70.855 172.339 65.0491 180.562C59.1366 188.93 59.6822 200.777 67.5305 210.306C72.4849 216.327 80.0075 220.329 87.2729 219.96C90.8851 219.769 94.5958 218.7 96.9958 216.324C98.2498 215.072 99.2308 213.436 99.5757 211.618C100.007 209.299 99.2104 206.862 97.2331 204.965C95.8162 203.615 93.8163 202.872 92.0963 203.106Z" fill="#9E0505"/>
<path fill-rule="evenodd" clip-rule="evenodd" d="M240.512 166.663C238.124 156.361 240.782 146.444 247.565 139.811C240.229 132.334 240.518 115.791 248.543 101.619C247.536 102.578 246.561 103.572 245.623 104.609C231.678 120.078 227.368 146.31 240.512 166.663Z" fill="#9E0505"/>
<path fill-rule="evenodd" clip-rule="evenodd" d="M56.0521 139.197C77.8337 144.076 95.0927 141.583 106.566 130.951C116.89 140.804 140.25 141.427 162.838 128.607C146.313 154.359 110.668 163.053 76.1129 149.554C69.1181 146.82 62.3917 143.329 56.0521 139.197Z" fill="#9E0505"/>
<path fill-rule="evenodd" clip-rule="evenodd" d="M143.318 94.1661C143.381 88.5896 147.814 86.2396 151.004 90.3321C154.762 79.4211 135.926 73.1755 131.242 88.0838C124.652 109.062 159.058 130.626 181.462 110.034C168.54 117.293 143.073 115.045 143.318 94.1661Z" fill="#9E0505"/>
<path fill-rule="evenodd" clip-rule="evenodd" d="M118.126 200.928C122.575 203.237 126.303 201.534 124.402 197.874C134.636 200.185 131.664 214.245 117.871 210.808C98.4545 205.973 95.8358 176.029 121.599 171.1C110.402 175.887 101.466 192.286 118.126 200.928Z" fill="#9E0505"/>
<path fill-rule="evenodd" clip-rule="evenodd" d="M201.242 185.716C191.277 189.635 184.551 183.196 181.099 181.603C195.729 195.12 187.896 202.36 198.56 211.501C195.031 211.794 191.13 211.048 187.197 209.419C183.489 207.882 179.745 205.573 176.278 202.657C147.882 178.818 171.193 135.192 194.957 124.398C174.398 136.885 175.234 168.855 201.242 185.716Z" fill="#9E0505"/>
<path d="M308.503 73.0285C296.244 67.9538 286.839 59.2144 286.636 50.3291C286.497 44.16 288.986 41.559 291.174 41.0896C292.429 40.8164 293.574 40.8266 294.577 41.0461C293.953 41.5066 293.478 42.1792 293.232 42.9989C293.07 43.5492 293.002 44.3178 293.089 44.9781C293.39 47.156 295.055 49.1142 297.165 49.562C299.495 50.0564 301.492 48.5194 301.705 46.1148C302.002 44.7187 301.475 42.8808 299.227 40.7505C293.085 34.9371 280.262 37.9956 283.102 51.3462C285.549 62.8261 296.622 69.7124 308.503 73.0285Z" fill="#9E0505"/>
<path d="M259.103 49.0419C254.531 41.6271 252.762 29.835 261.172 26.3457C266.335 24.2025 272.995 26.7524 276.089 32.3192C277.349 34.5966 277.867 37.2247 277.112 39.815C276.208 42.8957 273.232 44.0328 270.035 44.227C273.962 45.595 278.154 43.285 278.933 40.5862C279.837 37.511 279.224 34.3823 277.721 31.6801C274.099 25.1549 266.246 22.1148 260.184 24.634C250.847 28.5079 252.289 41.2952 257.519 49.7736C263.499 59.4731 274.547 66.1471 285.297 67.4182C275.23 64.6848 265.077 58.7242 259.103 49.0419Z" fill="#9E0505"/>
<path fill-rule="evenodd" clip-rule="evenodd" d="M160.589 203.609C164.553 202.828 169.842 203.91 172.985 207.086C176.784 210.921 179.037 215.602 179.341 220.496C180.005 231.302 171.296 238.672 160.197 237.249C142.981 235.037 133.267 215.578 133.145 201.134C133.041 187.661 139.77 175.811 150.171 168.66C141.018 176.799 134.832 188.164 134.939 201.422C135.046 214.863 143.961 233.457 160.112 235.532C170.245 236.833 178.163 230.164 177.559 220.293C177.286 215.871 175.249 211.629 171.806 208.157C168.595 204.914 164.597 203.651 160.589 203.609Z" fill="#9E0505"/>
<path d="M39.194 143.257C30.0002 133.374 18.668 127.66 10.7332 130.869C5.22002 133.099 3.87815 136.501 4.30265 138.784C4.53983 140.11 4.98977 141.205 5.56894 142.091C5.73893 141.314 6.1469 140.592 6.78132 140.049C7.20328 139.676 7.85355 139.312 8.47576 139.144C10.5152 138.601 12.8894 139.459 14.0896 141.316C15.4275 143.379 14.8312 145.889 12.7869 147.018C11.659 147.833 9.83968 148.036 7.09761 146.687C-0.403517 142.991 -2.61862 129.446 10.2768 127.074C21.3637 125.027 31.7017 133.062 39.194 143.257Z" fill="#9E0505"/>
<path d="M49.4517 48.7042C61.7628 47.9527 73.5662 52.0531 78.074 60.5412C81.2085 66.4378 80.4816 70.1037 78.9675 71.5662C78.0867 72.4084 77.1656 72.9264 76.2552 73.1797C76.5313 72.4456 76.5793 71.5757 76.3797 70.6733C76.2408 70.0694 75.9212 69.2895 75.5211 68.6907C74.2203 66.7251 71.9254 65.6087 70.0164 66.1464C67.9079 66.7444 67.0577 69.1493 68.0696 71.5767C68.514 73.059 69.8273 74.5885 72.671 75.6086C80.4382 78.3924 89.2182 69.5192 80.4074 57.9268C72.8395 47.9686 60.6028 46.4197 49.4517 48.7042Z" fill="#9E0505"/>
<path fill-rule="evenodd" clip-rule="evenodd" d="M55.0897 102.342C59.2548 103.831 64.4325 103.653 67.056 100.975C70.2275 97.7413 71.6776 93.38 71.1102 88.4628C69.8505 77.6054 59.6886 68.607 48.6726 68.1206C31.5864 67.37 25.2041 85.4398 27.6643 100.08C29.97 113.749 38.9239 126.953 50.7642 136.019C40.0141 126.162 31.6987 113.55 29.4352 100.1C27.1391 86.4754 32.8646 69.1455 48.8943 69.8491C58.945 70.2909 68.184 78.4407 69.3314 88.3535C69.8458 92.8014 68.541 96.7492 65.6665 99.6764C62.9859 102.416 59.1529 103.003 55.0897 102.342Z" fill="#9E0505"/>
</svg>
